<?xml version="1.0" encoding="iso-8859-1"?>
<!-- Generator: Adobe Illustrator 19.0.0, SVG Export Plug-In . SVG Version: 6.00 Build 0)  -->
<svg version="1.1" id="Layer_1" xmlns="http://www.w3.org/2000/svg" xmlns:xlink="http://www.w3.org/1999/xlink" x="0px" y="0px"
	 viewBox="0 0 512.001 512.001" style="enable-background:new 0 0 512.001 512.001;" xml:space="preserve">
<path style="fill:#FCA181;" d="M98.738,356.15l8.489-6.069c4.677-3.343,5.771-9.908,2.431-14.587l-22.631-31.708
	c-3.339-4.679-9.898-5.772-14.575-2.429l-8.49,6.069L98.738,356.15z"/>
<ellipse style="fill:#FBD33B;" cx="99.913" cy="86.59" rx="50.479" ry="50.448"/>
<path style="opacity:0.1;enable-background:new    ;" d="M81.962,86.588c0-22.175,14.319-40.993,34.215-47.76
	c-5.104-1.736-10.569-2.691-16.261-2.691c-27.877,0-50.476,22.589-50.476,50.451c0,27.863,22.598,50.451,50.476,50.451
	c5.692,0,11.156-0.955,16.261-2.692C96.281,127.581,81.962,108.763,81.962,86.588z"/>
<path style="fill:#0184B8;" d="M100.822,393.585v44.936c9.209-3.964,18.756-7.389,28.568-10.242v-34.694H100.822z"/>
<path style="opacity:0.1;enable-background:new    ;" d="M114.843,432.99v-39.405h-14.021v44.936
	C105.416,436.543,110.089,434.694,114.843,432.99z"/>
<path style="fill:#0184B8;" d="M244.94,393.585v27.836c9.711,1.583,19.255,3.695,28.568,6.324v-34.159H244.94V393.585z"/>
<path style="opacity:0.1;enable-background:new    ;" d="M244.94,393.585v27.836c4.715,0.768,9.393,1.652,14.021,2.671v-30.506
	H244.94V393.585z"/>
<path style="fill:#A0C663;" d="M353.604,433.924V345.89c0-2.875-2.352-5.226-5.226-5.226h-18.814c-2.875,0-5.227,2.351-5.227,5.226
	v99.214C333.6,439.927,343.438,436.161,353.604,433.924z"/>
<path style="fill:#FBD33B;" d="M462.342,475.863c-22.27-28.2-53.803-44.335-86.859-44.335c-24.464,0-48.098,8.833-67.759,24.854
	l-11.327,19.48h165.945V475.863z"/>
<path style="fill:#FFAA0E;" d="M363.149,475.863c-41.103-36.803-99.576-57.889-160.76-57.889S82.732,439.06,41.629,475.863H363.149z
	"/>
<path style="opacity:0.1;enable-background:new    ;" d="M202.389,417.972c-61.184,0-119.657,21.087-160.76,57.889h43.443
	c36.207-32.419,85.895-52.634,139.039-56.993C216.923,418.281,209.677,417.972,202.389,417.972z"/>
<path style="fill:#91CFE5;" d="M296.133,388.359c0,2.875-2.352,5.227-5.226,5.227H91.32c-2.875,0-6.592-1.914-8.262-4.253
	l-50.736-71.086c-1.67-2.339-1.123-5.622,1.215-7.293L51.1,298.4c2.337-1.673,5.617-1.126,7.287,1.213l41.155,57.661
	c1.67,2.34,5.389,4.253,8.263,4.253h183.103c2.873,0,5.226,2.352,5.226,5.227v21.605H296.133z"/>
<path style="opacity:0.1;enable-background:new    ;" d="M104.878,389.332l-50.736-71.086c-1.67-2.338-1.123-5.622,1.215-7.293
	l7.365-5.265l-4.335-6.074c-1.67-2.34-4.95-2.886-7.287-1.213l-17.563,12.553c-2.338,1.672-2.885,4.954-1.215,7.293l50.736,71.086
	c1.67,2.338,5.387,4.253,8.262,4.253h21.821C110.266,393.585,106.548,391.67,104.878,389.332z"/>
<path style="fill:#EF4545;" d="M442.045,243.778c-1.768,0-3.361-1.071-4.03-2.709c-5.032-12.332-16.937-20.3-30.326-20.3
	c-13.391,0-25.296,7.968-30.328,20.3c-0.67,1.637-2.262,2.709-4.03,2.709c-1.769,0-3.361-1.069-4.031-2.709
	c-5.032-12.332-16.937-20.3-30.328-20.3c-13.389,0-25.294,7.968-30.326,20.3c-0.67,1.637-2.261,2.709-4.029,2.709
	s-3.362-1.071-4.031-2.709c-5.032-12.332-16.937-20.3-30.327-20.3c-13.391,0-25.296,7.968-30.328,20.3
	c-0.669,1.637-2.262,2.709-4.03,2.709c-1.769,0-3.361-1.069-4.03-2.709c-5.032-12.332-16.937-20.3-30.327-20.3
	c-7.512,0-14.851,2.596-20.666,7.306c-0.793,0.643-1.764,0.971-2.741,0.971c-0.718,0-1.441-0.178-2.098-0.54
	c-1.55-0.852-2.43-2.563-2.225-4.322c9.768-83.772,80.771-146.943,165.16-146.943c84.392,0,155.394,63.17,165.161,146.943
	c0.205,1.759-0.675,3.469-2.225,4.322c-0.657,0.363-1.38,0.54-2.099,0.54c-0.978,0-1.948-0.328-2.741-0.971
	c-5.813-4.71-13.153-7.306-20.665-7.306c-13.39,0-25.295,7.968-30.327,20.3C445.407,242.707,443.814,243.778,442.045,243.778
	L442.045,243.778z"/>
<g style="opacity:0.1;">
	<path d="M349.778,77.597c-3.576-0.23-7.178-0.355-10.807-0.355c-84.389,0-155.393,63.17-165.16,146.943
		c-0.206,1.759,0.675,3.469,2.225,4.322c0.657,0.363,1.38,0.54,2.098,0.54c0.978,0,1.948-0.328,2.741-0.971
		c4.318-3.498,9.477-5.826,14.924-6.796C206.369,142.54,271.169,82.659,349.778,77.597z"/>
</g>
<path style="fill:#FFF0C0;" d="M334.467,80.457c-52.706,0-97.086,71.03-103.545,165.443c0.157,0.018,0.312,0.036,0.471,0.036
	c1.768,0,3.361-1.071,4.03-2.709c5.032-12.332,16.937-20.3,30.328-20.3c13.39,0,25.295,7.968,30.327,20.3
	c0.67,1.637,2.263,2.709,4.031,2.709c1.768,0,3.36-1.071,4.029-2.709c5.032-12.332,16.937-20.3,30.326-20.3
	c13.391,0,25.296,7.968,30.328,20.3c0.67,1.639,2.261,2.709,4.031,2.709c1.768,0,3.361-1.071,4.03-2.709
	c5.032-12.332,16.937-20.3,30.328-20.3c13.389,0,25.294,7.968,30.326,20.3c0.669,1.637,2.261,2.709,4.03,2.709
	c0.16,0,0.316-0.019,0.472-0.036C431.554,151.486,387.174,80.457,334.467,80.457z"/>
<path style="fill:#EF4545;" d="M335.18,78.436c-14.323,9.041-25.88,68.674-27.587,145.748l-1.467,19.311
	c1.12-0.417,2.049-1.278,2.519-2.426c5.032-12.332,16.937-20.3,30.326-20.3c13.391,0,25.296,7.968,30.328,20.3
	c0.205,0.502,0.504,0.94,0.859,1.321l0.192-18.205c-1.706-77.076-13.264-136.707-27.587-145.748
	c-1.26-0.082-2.522-0.136-3.792-0.136C337.701,78.3,336.439,78.354,335.18,78.436z"/>
<path d="M99.916,144.875c32.154,0,58.311-26.147,58.311-58.287S132.069,28.3,99.916,28.3c-32.154,0-58.312,26.147-58.312,58.287
	S67.764,144.875,99.916,144.875z M99.916,43.974c23.511,0,42.638,19.116,42.638,42.614s-19.128,42.614-42.638,42.614
	c-23.511,0-42.639-19.116-42.639-42.614S76.406,43.974,99.916,43.974z"/>
<circle cx="130.131" cy="449.89" r="7.839"/>
<circle cx="190.234" cy="449.89" r="7.839"/>
<circle cx="248.236" cy="449.89" r="7.839"/>
<circle cx="388.304" cy="455.637" r="7.839"/>
<path d="M362.044,244.032c1.881,4.607,6.31,7.584,11.286,7.584c4.973,0,9.403-2.976,11.286-7.585
	c3.824-9.371,12.88-15.425,23.073-15.425c10.191,0,19.247,6.054,23.071,15.425c1.88,4.607,6.31,7.585,11.285,7.585
	c4.976,0,9.406-2.978,11.286-7.585c3.824-9.371,12.88-15.425,23.072-15.425c5.721,0,11.308,1.974,15.73,5.557
	c2.163,1.753,4.89,2.72,7.677,2.72c2.052,0,4.086-0.523,5.874-1.509c4.363-2.399,6.81-7.147,6.233-12.097
	c-9.925-85.114-80.219-149.917-165.109-153.693v-6.178c0-4.329-3.509-7.837-7.837-7.837c-4.328,0-7.837,3.508-7.837,7.837v6.178
	c-84.89,3.775-155.184,68.579-165.107,153.691c-0.579,4.95,1.868,9.699,6.224,12.095c1.796,0.99,3.831,1.513,5.882,1.513
	c2.787,0,5.513-0.967,7.674-2.718c4.424-3.585,10.012-5.559,15.733-5.559c10.192,0,19.248,6.054,23.07,15.422
	c1.879,4.609,6.309,7.588,11.287,7.588c4.976,0,9.405-2.978,11.286-7.585c3.823-9.371,12.879-15.425,23.072-15.425
	c10.192,0,19.248,6.054,23.073,15.429c1.882,4.605,6.312,7.581,11.286,7.581c4.973,0,9.401-2.976,11.285-7.585
	c2.803-6.868,8.422-11.943,15.235-14.17v102.967h-1.569c-7.204,0-13.063,5.86-13.063,13.062v89.766
	c-11.217-5.405-22.981-10.008-35.156-13.749v-20.485h9.561c7.202,0,13.062-5.86,13.062-13.063v-21.604
	c0-7.204-5.86-13.063-13.062-13.063h-20.279c-4.328,0-7.837,3.509-7.837,7.837c0,4.329,3.509,7.837,7.837,7.837h17.668v16.384
	L91.39,385.751c-0.528-0.052-1.647-0.628-1.953-0.972l-49.223-68.966l13.315-9.517l39.635,55.531
	c3.117,4.369,9.274,7.538,14.641,7.538h133.566c4.328,0,7.837-3.508,7.837-7.837c0-4.328-3.509-7.837-7.837-7.837l-126.539,0.002
	c5.522-6.238,6.246-15.69,1.205-22.751l-22.631-31.707c-3.419-4.792-8.99-7.652-14.902-7.652c-3.83,0-7.498,1.176-10.609,3.399
	l-2.11,1.508l-1.021-1.429c-2.025-2.838-5.037-4.716-8.485-5.29c-3.449-0.57-6.907,0.228-9.738,2.253l-17.563,12.553
	c-5.858,4.188-7.22,12.362-3.036,18.222l50.737,71.087c3.118,4.367,9.274,7.536,14.64,7.536h1.666v32.026
	c-19.996,9.108-38.352,20.728-54.293,34.578H7.837c-4.328,0-7.837,3.508-7.837,7.837s3.509,7.837,7.837,7.837H149.42
	c4.328,0,7.837-3.508,7.837-7.837s-3.509-7.837-7.837-7.837H64.027c8.377-5.95,17.297-11.326,26.661-16.092
	c0.899,3.338,3.938,5.799,7.561,5.799c4.33,0,7.84-3.509,7.84-7.84c0-1.668-0.525-3.209-1.412-4.479
	c14.36-6.121,29.568-10.893,45.318-14.192c0.077,4.263,3.551,7.697,7.833,7.697c4.33,0,7.839-3.509,7.839-7.84
	c0-0.899-0.159-1.761-0.438-2.564c10.926-1.599,22.056-2.499,33.285-2.669c-1.248,1.389-2.014,3.219-2.014,5.233
	c0,4.331,3.51,7.84,7.84,7.84c4.329,0,7.839-3.509,7.839-7.84c0-1.969-0.73-3.763-1.928-5.138
	c14.677,0.448,29.159,2.141,43.221,5.008c0,0.044-0.006,0.086-0.006,0.13c0,4.331,3.51,7.84,7.84,7.84
	c3.114,0,5.796-1.82,7.061-4.452c8.338,2.241,16.492,4.904,24.412,7.967c-1.052,1.334-1.684,3.016-1.684,4.846
	c0,4.331,3.509,7.84,7.84,7.84c3.969,0,7.241-2.952,7.759-6.78c12.081,5.606,23.503,12.19,34.058,19.688H178.677
	c-4.328,0-7.837,3.508-7.837,7.837c0,4.329,3.509,7.837,7.837,7.837h319.238c4.328,0,7.837-3.508,7.837-7.837
	c0-4.329-3.509-7.837-7.837-7.837h-31.847c-23.598-28.224-56.408-44.335-90.584-44.335c-4.721,0-9.406,0.302-14.042,0.897v-12.899
	c0-4.329-3.509-7.837-7.837-7.837c-4.328,0-7.837,3.508-7.837,7.837v16.092c-4.609,1.288-9.145,2.878-13.593,4.761v-84.041h13.593
	v34.976c0,4.329,3.509,7.837,7.837,7.837c4.328,0,7.837-3.508,7.837-7.837V345.89c0-7.202-5.86-13.062-13.062-13.062h-1.572V229.86
	C353.62,232.086,359.24,237.162,362.044,244.032z M77.01,307.733c0.551-0.394,1.117-0.476,1.495-0.476
	c0.859,0,1.66,0.405,2.145,1.084l22.631,31.708c0.825,1.156,0.546,2.832-0.61,3.658l-2.11,1.507l-25.671-35.966L77.01,307.733z
	 M121.554,422.492c-4.355,1.375-8.654,2.865-12.895,4.459v-25.528h12.895C121.554,401.422,121.554,422.492,121.554,422.492z
	 M237.104,412.359c-11.421-1.468-23.025-2.224-34.716-2.224c-22.26,0-44.205,2.739-65.161,7.946v-16.66h99.876L237.104,412.359
	L237.104,412.359z M252.777,401.421h12.895v16.189c-4.259-1.024-8.562-1.937-12.895-2.755V401.421z M354.574,441.712
	c-0.153,0.612-0.243,1.249-0.243,1.908c0,4.331,3.509,7.84,7.84,7.84c4.329,0,7.839-3.509,7.839-7.84
	c0-1.471-0.414-2.844-1.118-4.021c2.188-0.153,4.385-0.236,6.592-0.236c11.161,0,22.17,2.02,32.662,5.86
	c-0.971,1.305-1.552,2.916-1.552,4.669c0,4.331,3.509,7.84,7.839,7.84c3.753,0,6.885-2.638,7.654-6.162
	c8.006,4.394,15.57,9.908,22.497,16.455h-78.497c-8.78-7.629-18.297-14.576-28.413-20.805
	C343.168,444.857,348.818,443.019,354.574,441.712z M420.484,170.753c1.394,4.098,5.843,6.292,9.942,4.896
	c4.097-1.393,6.29-5.844,4.897-9.942c-10.341-30.421-24.787-54.572-41.77-70.949c52.433,19.238,92.275,65.443,101.737,122.822
	c-5.791-3.028-12.287-4.648-18.889-4.648c-10.659,0-20.558,4.08-27.93,11.053c-1.303-10.361-3.072-20.505-5.296-30.321
	c-0.956-4.221-5.157-6.874-9.374-5.911c-4.221,0.956-6.868,5.153-5.912,9.375c1.769,7.811,3.23,15.848,4.389,24.047
	c-6.904-5.239-15.464-8.243-24.592-8.243c-11.421,0-21.965,4.689-29.466,12.596c-0.956-40.576-4.748-80.551-10.581-107.866
	c-2.333-10.928-4.897-19.912-7.738-27.046C384.463,101.188,406.603,129.92,420.484,170.753z M229.478,223.994
	c-7.373-6.978-17.275-11.061-27.938-11.061c-6.602,0-13.097,1.62-18.89,4.648c9.475-57.461,49.415-103.717,101.959-122.905
	c-7.666,7.364-14.853,16.323-21.397,26.785C246.19,148.67,234.454,184.55,229.478,223.994z M310.302,117.662
	c-5.891,27.586-9.636,65.356-10.544,106.348c-0.014,0.587,0.044,1.157,0.154,1.71c-7.513-8.027-18.141-12.788-29.656-12.788
	c-9.127,0-17.688,3.004-24.592,8.242c4.995-35.302,15.676-67.166,30.836-91.402c12.125-19.384,26.426-32.766,41.566-39.219
	C315.214,97.698,312.642,106.702,310.302,117.662z M338.97,212.932c-8.625,0-16.744,2.684-23.438,7.398
	c0.974-36.117,4.212-69.708,9.185-94.951c5.013-25.454,10.52-35.941,13.395-39.224c0.286-0.005,0.572-0.019,0.858-0.019
	c0.288,0,0.577,0.022,0.865,0.026c2.878,3.291,8.379,13.782,13.389,39.215c4.973,25.244,8.211,58.834,9.185,94.952
	C355.716,215.617,347.596,212.932,338.97,212.932z"/>
<g>
</g>
<g>
</g>
<g>
</g>
<g>
</g>
<g>
</g>
<g>
</g>
<g>
</g>
<g>
</g>
<g>
</g>
<g>
</g>
<g>
</g>
<g>
</g>
<g>
</g>
<g>
</g>
<g>
</g>
</svg>
